# xmcd
#
# Track frame offsets:
# 150
# 900
# 1650
# 2400
# 3150
# 3900
# 4650
# 5400
# 6150
# 6900
# 7650
# 8400
# 9150
# 9900
# 234957
#
# Disc length: 4440 seconds
#
#
# Revision: 0
# Processed by: cddbd v1.5.2PL0 Copyright (c) Steve Scherf et al.
# Submitted via: FreeRIP 2.951 
#
DISCID=5c11560f
DTITLE=Eric Clapton - Me and Mr. JOnson
DYEAR=2004
DGENRE=Blues
TTITLE0=When you got a Good Friend
TTITLE1=Little Queen of Spades
TTITLE2=They're red hot
TTITLE3=Me and the Devil Blues
TTITLE4=Travelling Riverside Blues
TTITLE5=Lat fair deal gone down
TTITLE6=Stop breakin' down Blues
TTITLE7=Milkcow's Calf Blues
TTITLE8=Kind hearted Woman Blues
TTITLE9=Come on in my Kitchen
TTITLE10=If I had possession over Judgement Day
TTITLE11=Love in Vain
TTITLE12=32-20 Blues
TTITLE13=Hell Houng on my Trail
TTITLE14=Anti-Kopierprogramm
EXTD=Reprise 9362 48423-2, LC00322
EXTT0=
EXTT1=
EXTT2=
EXTT3=
EXTT4=
EXTT5=
EXTT6=
EXTT7=
EXTT8=
EXTT9=
EXTT10=
EXTT11=
EXTT12=
EXTT13=
EXTT14=
PLAYORDER=
